<svg id="Calque_1" data-name="Calque 1" xmlns="http://www.w3.org/2000/svg" viewBox="0 0 400 400"><title>Sans titre - 1</title><path d="M127.7,55C111.25,39.89,97.1,23.45,85.9,4.15c1.06-.83,2-1.67,3-2.35s2-1.06,3.34-1.79a211.77,211.77,0,0,0,41.66,49.51c15.95-13.31,33.49-23.69,51.91-32.71,3.61-1.77,6.4-1.64,10,.08C219.42,28.35,241.34,42.24,260,61.36c21.88-15.69,36-37,47.12-61.11,1.32,0.49,2.34.83,3.32,1.24s2,0.95,3.68,1.74C303,28.72,287.61,50.58,265,67.57c11.13,12.94,13.11,28.06,13,44.37-0.53,59.92-.35,119.84-0.44,179.76,0,8.06-.19,8.29-8.06,8.29H111.7c-7.45,0-8.07-.59-8.08-8q0-59.45,0-118.9c0-21.6.7-43.23-.21-64.8C102.6,89.24,109.56,74,122.34,60.68,124,58.92,125.7,57.15,127.7,55Zm5.6,5.73c-14.07,12.8-22.6,27.78-22.32,48.37,0.8,58.4.28,116.82,0.28,175.24v7.34H269.74c0-2.24,0-4.09,0-5.94,0.11-58.6-.29-117.21.62-175.8,0.31-19.74-6.92-34.78-20.53-47.9-16.55-16-36-27.58-56.38-37.73-1.72-.86-4.84-0.52-6.58.5C173.15,32.94,159.58,41.29,146,49.68c-2.11,1.31-3.8,3.28-6.3,5.49l24.5,15.28c1.68-2.08,2.79-3.57,4-5a29.1,29.1,0,0,1,36.84-6c11.62,7,16.66,22,11.78,34.94s-18.19,20.26-32.19,17.75S161.31,97.68,161.39,82.6c0-2.15-1-5.25-2.61-6.31C150.66,70.94,142.19,66.11,133.3,60.78Zm36.13,21.45c-0.77,7.54,2,14.1,8.58,18.85,6.88,5,14.52,5.18,21.82,1.48,5.48-2.78,9.56-7.31,10.26-13.2ZM209.84,80c-0.67-8.57-7.18-15.19-16-16.71-9.13-1.57-17.64,2.48-21.11,10.33A82,82,0,0,0,209.84,80Z"/><path d="M250.59,191.85v6.66H131.08l-0.3-6.66H250.59Z"/><path d="M131.07,144.39v-7.15H242.81v7.15H131.07Z"/><path d="M242.77,218.73v7.06H131.12v-7.06H242.77Z"/><path d="M131.1,171.41v-7h80.75v7H131.1Z"/><path d="M211.91,246v7H131.18v-7h80.73Z"/></svg>