<svg id="Calque_1" data-name="Calque 1" xmlns="http://www.w3.org/2000/svg" viewBox="0 0 400 400"><title>Sans titre - 1</title><path d="M178.57,31.43c0-8.2.11-15.79,0-23.37-0.11-5.82,2.34-8.26,8.3-8,8.66,0.32,17.35.32,26,0,6.07-.23,8.23,2.39,8,8.18-0.23,7.34-.06,14.69-0.06,22.79,3.4,0.17,6.1.42,8.79,0.42q43.23,0,86.46,0c9.12,0,10.3,1.1,10.3,10q0.06,74.21,0,148.43c0,8.85-1.27,10.13-10.26,10.13q-116.29.06-232.59,0c-9,0-9.92-1-9.93-10.27q0-74.21,0-148.43c0-9.08.82-9.82,10.26-9.83q42.85,0,85.69,0h9ZM84.66,42.33a28.1,28.1,0,0,0-.63,3.8c0,45.88.06,91.76-.16,137.64,0,6.39,3.52,6.07,7.82,6.07q108.2-.05,216.41.12c6.72,0,7.87-2.43,7.84-8.43-0.22-43.84-.11-87.68-0.14-131.53,0-2.44-.26-4.87-0.41-7.5H220.83c0,4.26-.17,8,0,11.77,0.35,6-2.09,9.11-8.36,9-8.66-.14-17.33-0.09-26-0.07-5.36,0-8-2.57-7.94-8,0-4.23,0-8.46,0-12.94H84.66ZM189.8,11V52h19.93V11H189.8Z"/><path d="M124,120.06c-11.11-16.22-10.77-30,.4-39.83a26.85,26.85,0,0,1,35.58.44c10.45,9.55,10.58,24.11-.16,39.16,10.45,7.92,18.74,17.45,18.62,31.9-6.33,2-10,1.85-11.37-6.08-2-11.31-12.67-19-24.44-19.32a26.1,26.1,0,0,0-25.4,17.25c-0.92,2.62-1.44,5.37-2.28,8.61h-9.76C105.55,137.79,112.87,128,124,120.06Zm18-4.75c9.16-.06,16-7,15.75-15.93-0.28-8.65-7-15-15.88-15.05-9.23,0-15.67,6.64-15.48,16C126.54,109.24,132.91,115.37,142,115.31Z"/><path d="M247.21,95q-18,0-36,0c-2,0-4.46.49-6-.42-2.09-1.24-3.51-3.62-5.22-5.51,1.93-1.57,3.85-4.48,5.81-4.5q41.32-.45,82.64,0c2,0,3.95,2.9,5.92,4.45-2.2,2-4.29,5.48-6.64,5.65-9.13.69-18.34,0.33-27.53,0.35h-13Z"/><path d="M241.56,147.49c-11.18,0-22.37.33-33.52-.24-2.74-.14-7.28-2.93-7.6-5-0.82-5.41,4-5.26,7.9-5.26q33.54,0,67.07,0c3.92,0,8.81-.12,8,5.16-0.34,2.17-5.31,5-8.3,5.13C263.93,147.86,252.74,147.5,241.56,147.49Z"/><path d="M231.62,110.52c8.12,0,16.27-.33,24.35.21,2.3,0.15,4.43,2.85,6.63,4.38-2.09,2-4.14,5.6-6.29,5.67q-24.72.73-49.48,0c-2.31-.06-4.52-3.49-6.78-5.36,2.4-1.64,4.7-4.51,7.21-4.7C215.34,110.14,223.49,110.52,231.62,110.52Z"/></svg>