<svg id="Calque_1" data-name="Calque 1" xmlns="http://www.w3.org/2000/svg" viewBox="0 0 400 400"><title>Sans titre - 1</title><path d="M158.36,33.27V0H350.7V168.55c-1.32.13-2.72,0.37-4.13,0.38-6.61,0-13.24.28-19.84-.07-4.28-.23-6.26.85-7.45,5.39-3.87,14.85-18.91,25.8-34.42,25.76-15.76,0-30.72-11.14-34.59-26.27-1-3.9-2.56-4.88-6.32-4.86q-45.64.21-91.28,0c-3.79,0-5.33,1-6.28,4.89C142.73,188.7,127.5,200,111.79,200s-30.93-11.31-34.57-26.25c-1-3.92-2.56-5-6.31-4.87-7.06.25-14.14,0.07-21.59,0.07,0-2.24,0-3.86,0-5.49,0-23.32-.08-46.63.1-69.95a17.94,17.94,0,0,1,2.25-8.33c9-16,18.37-31.73,27.39-47.69,1.76-3.11,3.63-4.34,7.29-4.31,22,0.19,44,.1,66,0.1h6Zm10.32,125.4c26.2,0,51.84,0,77.47.06,3,0,3.3-1.72,3.89-3.94a36,36,0,0,1,68.23-4.59c1.13,2.68,1.88,5.52,2.74,8.09h19.5V10.51H168.68V158.68ZM59.87,96.09v62.59c4,0,7.61-.26,11.2.07,3.85,0.35,5.25-1,6.21-4.86,3.58-14.25,16.84-24.89,31.57-26,15.39-1.15,29.67,7.13,35.69,20.83,1.37,3.13,2.33,6.44,3.48,9.65h10V96.09H59.87Zm3.85-10.9H158V43.88a18.22,18.22,0,0,0-2.25-.32c-21.67,0-43.35-.1-65,0.13-1.75,0-4.13,1.8-5.11,3.42C78.83,58.28,72.35,69.62,65.82,80.92,65.11,82.14,64.56,83.46,63.72,85.19ZM112.47,189.7c14.28-.16,25.37-11.67,25.29-26.25A25.94,25.94,0,1,0,112.47,189.7Zm172.08,0A26,26,0,0,0,311,163.86c0.23-14-11.51-26-25.66-26.16-14.35-.2-26.53,11.69-26.49,25.87S270.49,189.63,284.54,189.68Z"/><path d="M303.14,76.47v9.42H196.67V76.47H303.14Z"/><path d="M268.88,42.35v9.57H196.62V42.35h72.26Z"/><path d="M231.45,110.51v9.69H196.6v-9.69h34.85Z"/></svg>