<svg id="Calque_1" data-name="Calque 1" xmlns="http://www.w3.org/2000/svg" viewBox="0 0 400 400"><title>Sans titre - 1</title><path d="M202.51,250c-29.15-.6-50.82-0.87-72.15-5.31-13-2.7-25.1-7.26-36.12-14.83-14.9-10.23-22.35-24.71-24.84-42.11Q64.56,154,90.15,131.18C102.72,120,112.27,106.62,120,91.8c8.42-16.17,20.85-27.51,38.94-31.77a51.46,51.46,0,0,1,11.35-1.31c19.76-.13,39.53-0.37,59.29,0,22.13,0.41,38.12,11.47,48.77,30.38,6.77,12,13.66,23.9,23.21,34,4.2,4.44,9,8.34,13.1,12.84,18.7,20.39,20.53,43.71,11.34,68.69-6.11,16.6-19.19,26.24-34.57,33.21s-32,9.38-48.66,10.49C226.87,249.36,210.94,249.67,202.51,250Zm-2.34-10.11c15.26-.72,30.55-1.12,45.78-2.25,14-1,27.86-3.29,40.82-9.05S311,215,316.42,201c8.57-22.15,5.82-45.73-13.9-62.56a80.34,80.34,0,0,1-13.39-14.1c-7.07-9.92-13.58-20.28-19.91-30.7-8.95-14.71-21.26-24.08-38.87-24.5-19.74-.47-39.51-0.39-59.26-0.16a48.69,48.69,0,0,0-14.57,2.57c-13.21,4.4-21.78,14-28,26.11a143.68,143.68,0,0,1-32.7,42.41c-10.23,9-16.16,20.36-16.66,34-0.66,17.84,3.73,33.8,18.57,45.46,10.49,8.24,22.6,12.6,35.47,15.16C155.29,239.09,177.72,239.32,200.17,239.89Z"/><path d="M172.15,36.7h55.91c-2.11-2.61-3.73-4.85-5.65-6.8-0.55-.56-2-0.43-3-0.28-8.74,1.34-16.59-4.11-17.66-12.34C200.58,8.42,206.24,1.2,215.18.15c10-1.19,18.32,9.13,15.23,19.29-0.67,2.19-.49,3.61,1.06,5a1.64,1.64,0,0,1,.24.29,38.61,38.61,0,0,0,23.16,16.69c16.38,4.49,28.64,15.63,38,29.82,2,3.09,4,6.19,5.9,9.38s1.22,6.27-1.5,7.64c-3,1.49-5.34.54-7.22-2.17-4.28-6.16-8.11-12.74-13.09-18.28-12.19-13.56-27.77-20.38-46-20.53q-30.59-.25-61.19,0c-22.4.16-39.9,9.88-52.85,28-2.59,3.62-4.75,7.55-7.24,11.24-1.75,2.59-4.32,3.29-7,1.7s-3.29-4.19-1.77-6.95c9.55-17.27,22.1-31.44,40.94-38.95,2.48-1,5-2.27,7.57-2.54,6.54-.66,10.91-4.18,14.29-9.44a24.49,24.49,0,0,1,2.42-3c2.62-2.94,4.33-5.47,3.11-10.26C167,8.63,174,.73,182.88,0c7.92-.62,15.22,6.23,15.56,14.6A14.82,14.82,0,0,1,183.57,29.8C176.81,29.79,176.81,29.79,172.15,36.7Zm45-26.84h-1.78c-1.19,1.66-3.11,3.2-3.4,5-0.44,2.72,1.57,4.66,4.38,4.6s4.83-1.91,4.3-4.69C220.34,13,218.41,11.5,217.19,9.86Zm-32.5,0-1.79-.06c-1.27,1.6-3.25,3-3.63,4.83-0.57,2.7,1.34,4.74,4.13,4.82s4.9-1.63,4.46-4.47C187.59,13.19,185.81,11.59,184.7,9.9Z"/><path d="M185.47,171.3a24.27,24.27,0,0,0,12.41,13.75c6.72,3.46,14,4.57,21.45,4.57,4.19,0,6.92,3.27,5.3,6.64-0.74,1.54-2.89,3.36-4.44,3.4-16.12.4-30.63-3.4-40.59-17.39a37,37,0,0,1-4.25-8.48c-0.75-2-1.67-2.9-3.82-2.72a23.93,23.93,0,0,1-5.34-.1c-2.88-.41-4.75-2.24-4.71-5.14,0-3.06,1.93-4.92,5.07-5.14,1.88-.13,3.78,0,5.94,0v-8.6c-1.87,0-3.75.11-5.61,0-3.34-.25-5.61-2.42-5.42-5.26,0.21-3.13,2.25-5.49,5.14-5,6.95,1.1,9.57-2.7,12.74-8,6.57-11.07,17.63-15.7,29.94-17.54a68.73,68.73,0,0,1,9.9-.62c3.69,0,5.85,2,5.86,5.12s-2.16,4.8-5.77,5.35c-6.61,1-13.32,1.83-19.7,3.72-5.57,1.65-9.79,5.73-13,11.78h5.19c5.86,0,11.73-.08,17.59,0,4,0.08,6.25,2.07,6.3,5.2,0.06,3.32-2.26,5.31-6.49,5.33-8.4.06-16.81,0-25.76,0l-0.48,8.55h4.73c7.27,0,14.53,0,21.8,0,3.95,0,6.2,2,6.2,5.18s-2.31,5.19-6.23,5.24c-6.63.09-13.26,0-19.88,0C188.28,171.12,187.06,171.23,185.47,171.3Z"/></svg>